<svg width="1468" height="305" viewBox="0 0 1468 305" fill="none" xmlns="http://www.w3.org/2000/svg">
<rect x="163" y="128" width="1110" height="41" fill="url(#paint0_linear)"/>
<line x1="393.5" y1="128" x2="393.5" y2="190" stroke="white" stroke-width="5"/>
<line x1="688.5" y1="128" x2="688.5" y2="190" stroke="white" stroke-width="5"/>
<line x1="980.5" y1="128" x2="980.5" y2="190" stroke="white" stroke-width="5"/>
<line x1="1272.5" y1="128" x2="1272.5" y2="195" stroke="white" stroke-width="5"/>
<path d="M386.621 215.168L387.922 202.406H401.035V205.412H390.682L389.908 212.391C391.162 211.652 392.586 211.283 394.18 211.283C396.512 211.283 398.363 212.057 399.734 213.604C401.105 215.139 401.791 217.219 401.791 219.844C401.791 222.48 401.076 224.561 399.646 226.084C398.229 227.596 396.242 228.352 393.688 228.352C391.426 228.352 389.58 227.725 388.15 226.471C386.721 225.217 385.906 223.482 385.707 221.268H388.783C388.982 222.732 389.504 223.84 390.348 224.59C391.191 225.328 392.305 225.697 393.688 225.697C395.199 225.697 396.383 225.182 397.238 224.15C398.105 223.119 398.539 221.695 398.539 219.879C398.539 218.168 398.07 216.797 397.133 215.766C396.207 214.723 394.971 214.201 393.424 214.201C392.006 214.201 390.893 214.512 390.084 215.133L389.223 215.836L386.621 215.168Z" fill="white"/>
<path d="M679.814 228H676.545V206.326L669.988 208.734V205.781L679.305 202.283H679.814V228ZM705.391 217.084C705.391 220.893 704.74 223.723 703.439 225.574C702.139 227.426 700.105 228.352 697.34 228.352C694.609 228.352 692.588 227.449 691.275 225.645C689.963 223.828 689.283 221.121 689.236 217.523V213.182C689.236 209.42 689.887 206.625 691.188 204.797C692.488 202.969 694.527 202.055 697.305 202.055C700.059 202.055 702.086 202.939 703.387 204.709C704.688 206.467 705.355 209.186 705.391 212.865V217.084ZM702.139 212.637C702.139 209.883 701.752 207.879 700.979 206.625C700.205 205.359 698.98 204.727 697.305 204.727C695.641 204.727 694.428 205.354 693.666 206.607C692.904 207.861 692.512 209.789 692.488 212.391V217.594C692.488 220.359 692.887 222.404 693.684 223.729C694.492 225.041 695.711 225.697 697.34 225.697C698.945 225.697 700.135 225.076 700.908 223.834C701.693 222.592 702.104 220.635 702.139 217.963V212.637Z" fill="white"/>
<path d="M972.814 228H969.545V206.326L962.988 208.734V205.781L972.305 202.283H972.814V228ZM983.836 215.168L985.137 202.406H998.25V205.412H987.896L987.123 212.391C988.377 211.652 989.801 211.283 991.395 211.283C993.727 211.283 995.578 212.057 996.949 213.604C998.32 215.139 999.006 217.219 999.006 219.844C999.006 222.48 998.291 224.561 996.861 226.084C995.443 227.596 993.457 228.352 990.902 228.352C988.641 228.352 986.795 227.725 985.365 226.471C983.936 225.217 983.121 223.482 982.922 221.268H985.998C986.197 222.732 986.719 223.84 987.562 224.59C988.406 225.328 989.52 225.697 990.902 225.697C992.414 225.697 993.598 225.182 994.453 224.15C995.32 223.119 995.754 221.695 995.754 219.879C995.754 218.168 995.285 216.797 994.348 215.766C993.422 214.723 992.186 214.201 990.639 214.201C989.221 214.201 988.107 214.512 987.299 215.133L986.438 215.836L983.836 215.168Z" fill="white"/>
<path d="M1271.9 228H1255.13V225.662L1263.99 215.818C1265.3 214.33 1266.2 213.123 1266.69 212.197C1267.2 211.26 1267.45 210.293 1267.45 209.297C1267.45 207.961 1267.04 206.865 1266.24 206.01C1265.43 205.154 1264.35 204.727 1263 204.727C1261.38 204.727 1260.12 205.189 1259.22 206.115C1258.33 207.029 1257.89 208.307 1257.89 209.947H1254.63C1254.63 207.592 1255.39 205.688 1256.9 204.234C1258.43 202.781 1260.46 202.055 1263 202.055C1265.38 202.055 1267.26 202.682 1268.64 203.936C1270.03 205.178 1270.72 206.836 1270.72 208.91C1270.72 211.43 1269.11 214.43 1265.9 217.91L1259.05 225.346H1271.9V228ZM1291.39 217.084C1291.39 220.893 1290.74 223.723 1289.44 225.574C1288.14 227.426 1286.11 228.352 1283.34 228.352C1280.61 228.352 1278.59 227.449 1277.28 225.645C1275.96 223.828 1275.28 221.121 1275.24 217.523V213.182C1275.24 209.42 1275.89 206.625 1277.19 204.797C1278.49 202.969 1280.53 202.055 1283.3 202.055C1286.06 202.055 1288.09 202.939 1289.39 204.709C1290.69 206.467 1291.36 209.186 1291.39 212.865V217.084ZM1288.14 212.637C1288.14 209.883 1287.75 207.879 1286.98 206.625C1286.21 205.359 1284.98 204.727 1283.3 204.727C1281.64 204.727 1280.43 205.354 1279.67 206.607C1278.9 207.861 1278.51 209.789 1278.49 212.391V217.594C1278.49 220.359 1278.89 222.404 1279.68 223.729C1280.49 225.041 1281.71 225.697 1283.34 225.697C1284.95 225.697 1286.13 225.076 1286.91 223.834C1287.69 222.592 1288.1 220.635 1288.14 217.963V212.637Z" fill="white"/>
<path d="M188.641 101H185.248L172.363 81.2773V101H168.971V75.4062H172.363L185.283 95.2168V75.4062H188.641V101ZM205.867 99.1191C204.602 100.607 202.744 101.352 200.295 101.352C198.268 101.352 196.721 100.766 195.654 99.5938C194.6 98.4102 194.066 96.6641 194.055 94.3555V81.9805H197.307V94.2676C197.307 97.1504 198.479 98.5918 200.822 98.5918C203.307 98.5918 204.959 97.666 205.779 95.8145V81.9805H209.031V101H205.938L205.867 99.1191ZM217.047 81.9805L217.135 84.0898C218.529 82.4492 220.41 81.6289 222.777 81.6289C225.438 81.6289 227.248 82.6484 228.209 84.6875C228.842 83.7734 229.662 83.0352 230.67 82.4727C231.689 81.9102 232.891 81.6289 234.273 81.6289C238.445 81.6289 240.566 83.8379 240.637 88.2559V101H237.385V88.4492C237.385 87.0898 237.074 86.0762 236.453 85.4082C235.832 84.7285 234.789 84.3887 233.324 84.3887C232.117 84.3887 231.115 84.752 230.318 85.4785C229.521 86.1934 229.059 87.1602 228.93 88.3789V101H225.66V88.5371C225.66 85.7715 224.307 84.3887 221.6 84.3887C219.467 84.3887 218.008 85.2969 217.223 87.1133V101H213.971V81.9805H217.047ZM261.66 91.7012C261.66 94.6074 260.992 96.9453 259.656 98.7148C258.32 100.473 256.527 101.352 254.277 101.352C251.875 101.352 250.018 100.502 248.705 98.8027L248.547 101H245.559V74H248.811V84.0723C250.123 82.4434 251.934 81.6289 254.242 81.6289C256.551 81.6289 258.361 82.502 259.674 84.248C260.998 85.9941 261.66 88.3848 261.66 91.4199V91.7012ZM258.408 91.332C258.408 89.1172 257.98 87.4062 257.125 86.1992C256.27 84.9922 255.039 84.3887 253.434 84.3887C251.289 84.3887 249.748 85.3848 248.811 87.377V95.6035C249.807 97.5957 251.359 98.5918 253.469 98.5918C255.027 98.5918 256.24 97.9883 257.107 96.7812C257.975 95.5742 258.408 93.7578 258.408 91.332ZM273.666 101.352C271.088 101.352 268.99 100.508 267.373 98.8203C265.756 97.1211 264.947 94.8535 264.947 92.0176V91.4199C264.947 89.5332 265.305 87.8516 266.02 86.375C266.746 84.8867 267.754 83.7266 269.043 82.8945C270.344 82.0508 271.75 81.6289 273.262 81.6289C275.734 81.6289 277.656 82.4434 279.027 84.0723C280.398 85.7012 281.084 88.0332 281.084 91.0684V92.4219H268.199C268.246 94.2969 268.791 95.8145 269.834 96.9746C270.889 98.123 272.225 98.6973 273.842 98.6973C274.99 98.6973 275.963 98.4629 276.76 97.9941C277.557 97.5254 278.254 96.9043 278.852 96.1309L280.838 97.6777C279.244 100.127 276.854 101.352 273.666 101.352ZM273.262 84.3008C271.949 84.3008 270.848 84.7812 269.957 85.7422C269.066 86.6914 268.516 88.0273 268.305 89.75H277.832V89.5039C277.738 87.8516 277.293 86.5742 276.496 85.6719C275.699 84.7578 274.621 84.3008 273.262 84.3008ZM294.057 84.8984C293.564 84.8164 293.031 84.7754 292.457 84.7754C290.324 84.7754 288.877 85.6836 288.115 87.5V101H284.863V81.9805H288.027L288.08 84.1777C289.146 82.4785 290.658 81.6289 292.615 81.6289C293.248 81.6289 293.729 81.7109 294.057 81.875V84.8984ZM305.131 91.3145C305.131 89.4512 305.494 87.7754 306.221 86.2871C306.959 84.7988 307.979 83.6504 309.279 82.8418C310.592 82.0332 312.086 81.6289 313.762 81.6289C316.352 81.6289 318.443 82.5254 320.037 84.3184C321.643 86.1113 322.445 88.4961 322.445 91.4727V91.7012C322.445 93.5527 322.088 95.2168 321.373 96.6934C320.67 98.1582 319.656 99.3008 318.332 100.121C317.02 100.941 315.508 101.352 313.797 101.352C311.219 101.352 309.127 100.455 307.521 98.6621C305.928 96.8691 305.131 94.4961 305.131 91.543V91.3145ZM308.4 91.7012C308.4 93.8105 308.887 95.5039 309.859 96.7812C310.844 98.0586 312.156 98.6973 313.797 98.6973C315.449 98.6973 316.762 98.0527 317.734 96.7637C318.707 95.4629 319.193 93.6465 319.193 91.3145C319.193 89.2285 318.695 87.541 317.699 86.252C316.715 84.9512 315.402 84.3008 313.762 84.3008C312.156 84.3008 310.861 84.9395 309.877 86.2168C308.893 87.4941 308.4 89.3223 308.4 91.7012ZM328.123 101V84.4941H325.117V81.9805H328.123V80.0293C328.123 77.9902 328.668 76.4141 329.758 75.3008C330.848 74.1875 332.389 73.6309 334.381 73.6309C335.131 73.6309 335.875 73.7305 336.613 73.9297L336.438 76.5664C335.887 76.4609 335.301 76.4082 334.68 76.4082C333.625 76.4082 332.811 76.7188 332.236 77.3398C331.662 77.9492 331.375 78.8281 331.375 79.9766V81.9805H335.436V84.4941H331.375V101H328.123ZM355.598 98.6973C356.758 98.6973 357.771 98.3457 358.639 97.6426C359.506 96.9395 359.986 96.0605 360.08 95.0059H363.156C363.098 96.0957 362.723 97.1328 362.031 98.1172C361.34 99.1016 360.414 99.8867 359.254 100.473C358.105 101.059 356.887 101.352 355.598 101.352C353.008 101.352 350.945 100.49 349.41 98.7676C347.887 97.0332 347.125 94.666 347.125 91.666V91.1211C347.125 89.2695 347.465 87.623 348.145 86.1816C348.824 84.7402 349.797 83.6211 351.062 82.8242C352.34 82.0273 353.846 81.6289 355.58 81.6289C357.713 81.6289 359.482 82.2676 360.889 83.5449C362.307 84.8223 363.062 86.4805 363.156 88.5195H360.08C359.986 87.2891 359.518 86.2812 358.674 85.4961C357.842 84.6992 356.811 84.3008 355.58 84.3008C353.928 84.3008 352.645 84.8984 351.73 86.0938C350.828 87.2773 350.377 88.9941 350.377 91.2441V91.8594C350.377 94.0508 350.828 95.7383 351.73 96.9219C352.633 98.1055 353.922 98.6973 355.598 98.6973ZM365.951 91.3145C365.951 89.4512 366.314 87.7754 367.041 86.2871C367.779 84.7988 368.799 83.6504 370.1 82.8418C371.412 82.0332 372.906 81.6289 374.582 81.6289C377.172 81.6289 379.264 82.5254 380.857 84.3184C382.463 86.1113 383.266 88.4961 383.266 91.4727V91.7012C383.266 93.5527 382.908 95.2168 382.193 96.6934C381.49 98.1582 380.477 99.3008 379.152 100.121C377.84 100.941 376.328 101.352 374.617 101.352C372.039 101.352 369.947 100.455 368.342 98.6621C366.748 96.8691 365.951 94.4961 365.951 91.543V91.3145ZM369.221 91.7012C369.221 93.8105 369.707 95.5039 370.68 96.7812C371.664 98.0586 372.977 98.6973 374.617 98.6973C376.27 98.6973 377.582 98.0527 378.555 96.7637C379.527 95.4629 380.014 93.6465 380.014 91.3145C380.014 89.2285 379.516 87.541 378.52 86.252C377.535 84.9512 376.223 84.3008 374.582 84.3008C372.977 84.3008 371.682 84.9395 370.697 86.2168C369.713 87.4941 369.221 89.3223 369.221 91.7012ZM390.42 81.9805L390.525 84.3711C391.979 82.543 393.877 81.6289 396.221 81.6289C400.24 81.6289 402.268 83.8965 402.303 88.4316V101H399.051V88.4141C399.039 87.043 398.723 86.0293 398.102 85.373C397.492 84.7168 396.537 84.3887 395.236 84.3887C394.182 84.3887 393.256 84.6699 392.459 85.2324C391.662 85.7949 391.041 86.5332 390.596 87.4473V101H387.344V81.9805H390.42ZM408.297 101V84.4941H405.291V81.9805H408.297V80.3633C408.297 78.2422 408.9 76.5898 410.107 75.4062C411.326 74.2227 413.043 73.6309 415.258 73.6309C416.57 73.6309 418.229 73.9883 420.232 74.7031L419.688 77.4453C418.223 76.8594 416.828 76.5664 415.504 76.5664C414.109 76.5664 413.102 76.8828 412.48 77.5156C411.871 78.1367 411.566 79.0742 411.566 80.3281V81.9805H415.451V84.4941H411.566V101H408.297ZM421.85 101H418.58V81.9805H421.85V101ZM436.334 84.8984C435.842 84.8164 435.309 84.7754 434.734 84.7754C432.602 84.7754 431.154 85.6836 430.393 87.5V101H427.141V81.9805H430.305L430.357 84.1777C431.424 82.4785 432.936 81.6289 434.893 81.6289C435.525 81.6289 436.006 81.7109 436.334 81.875V84.8984ZM442.398 81.9805L442.486 84.0898C443.881 82.4492 445.762 81.6289 448.129 81.6289C450.789 81.6289 452.6 82.6484 453.561 84.6875C454.193 83.7734 455.014 83.0352 456.021 82.4727C457.041 81.9102 458.242 81.6289 459.625 81.6289C463.797 81.6289 465.918 83.8379 465.988 88.2559V101H462.736V88.4492C462.736 87.0898 462.426 86.0762 461.805 85.4082C461.184 84.7285 460.141 84.3887 458.676 84.3887C457.469 84.3887 456.467 84.752 455.67 85.4785C454.873 86.1934 454.41 87.1602 454.281 88.3789V101H451.012V88.5371C451.012 85.7715 449.658 84.3887 446.951 84.3887C444.818 84.3887 443.359 85.2969 442.574 87.1133V101H439.322V81.9805H442.398ZM478.803 101.352C476.225 101.352 474.127 100.508 472.51 98.8203C470.893 97.1211 470.084 94.8535 470.084 92.0176V91.4199C470.084 89.5332 470.441 87.8516 471.156 86.375C471.883 84.8867 472.891 83.7266 474.18 82.8945C475.48 82.0508 476.887 81.6289 478.398 81.6289C480.871 81.6289 482.793 82.4434 484.164 84.0723C485.535 85.7012 486.221 88.0332 486.221 91.0684V92.4219H473.336C473.383 94.2969 473.928 95.8145 474.971 96.9746C476.025 98.123 477.361 98.6973 478.979 98.6973C480.127 98.6973 481.1 98.4629 481.896 97.9941C482.693 97.5254 483.391 96.9043 483.988 96.1309L485.975 97.6777C484.381 100.127 481.99 101.352 478.803 101.352ZM478.398 84.3008C477.086 84.3008 475.984 84.7812 475.094 85.7422C474.203 86.6914 473.652 88.0273 473.441 89.75H482.969V89.5039C482.875 87.8516 482.43 86.5742 481.633 85.6719C480.836 84.7578 479.758 84.3008 478.398 84.3008ZM489.209 91.332C489.209 88.4141 489.9 86.0703 491.283 84.3008C492.666 82.5195 494.477 81.6289 496.715 81.6289C498.941 81.6289 500.705 82.3906 502.006 83.9141V74H505.258V101H502.27L502.111 98.9609C500.811 100.555 499 101.352 496.68 101.352C494.477 101.352 492.678 100.449 491.283 98.6445C489.9 96.8398 489.209 94.4844 489.209 91.5781V91.332ZM492.461 91.7012C492.461 93.8574 492.906 95.5449 493.797 96.7637C494.688 97.9824 495.918 98.5918 497.488 98.5918C499.551 98.5918 501.057 97.666 502.006 95.8145V87.0781C501.033 85.2852 499.539 84.3887 497.523 84.3887C495.93 84.3887 494.688 85.0039 493.797 86.2344C492.906 87.4648 492.461 89.2871 492.461 91.7012ZM526.879 98.6973C528.039 98.6973 529.053 98.3457 529.92 97.6426C530.787 96.9395 531.268 96.0605 531.361 95.0059H534.438C534.379 96.0957 534.004 97.1328 533.312 98.1172C532.621 99.1016 531.695 99.8867 530.535 100.473C529.387 101.059 528.168 101.352 526.879 101.352C524.289 101.352 522.227 100.49 520.691 98.7676C519.168 97.0332 518.406 94.666 518.406 91.666V91.1211C518.406 89.2695 518.746 87.623 519.426 86.1816C520.105 84.7402 521.078 83.6211 522.344 82.8242C523.621 82.0273 525.127 81.6289 526.861 81.6289C528.994 81.6289 530.764 82.2676 532.17 83.5449C533.588 84.8223 534.344 86.4805 534.438 88.5195H531.361C531.268 87.2891 530.799 86.2812 529.955 85.4961C529.123 84.6992 528.092 84.3008 526.861 84.3008C525.209 84.3008 523.926 84.8984 523.012 86.0938C522.109 87.2773 521.658 88.9941 521.658 91.2441V91.8594C521.658 94.0508 522.109 95.7383 523.012 96.9219C523.914 98.1055 525.203 98.6973 526.879 98.6973ZM549.836 101C549.648 100.625 549.496 99.957 549.379 98.9961C547.867 100.566 546.062 101.352 543.965 101.352C542.09 101.352 540.549 100.824 539.342 99.7695C538.146 98.7031 537.549 97.3555 537.549 95.7266C537.549 93.7461 538.299 92.2109 539.799 91.1211C541.311 90.0195 543.432 89.4688 546.162 89.4688H549.326V87.9746C549.326 86.8379 548.986 85.9355 548.307 85.2676C547.627 84.5879 546.625 84.248 545.301 84.248C544.141 84.248 543.168 84.541 542.383 85.127C541.598 85.7129 541.205 86.4219 541.205 87.2539H537.936C537.936 86.3047 538.27 85.3906 538.938 84.5117C539.617 83.6211 540.531 82.918 541.68 82.4023C542.84 81.8867 544.111 81.6289 545.494 81.6289C547.686 81.6289 549.402 82.1797 550.645 83.2812C551.887 84.3711 552.531 85.877 552.578 87.7988V96.5527C552.578 98.2988 552.801 99.6875 553.246 100.719V101H549.836ZM544.439 98.5215C545.459 98.5215 546.426 98.2578 547.34 97.7305C548.254 97.2031 548.916 96.5176 549.326 95.6738V91.7715H546.777C542.793 91.7715 540.801 92.9375 540.801 95.2695C540.801 96.2891 541.141 97.0859 541.82 97.6602C542.5 98.2344 543.373 98.5215 544.439 98.5215ZM568.75 95.9551C568.75 95.0762 568.416 94.3965 567.748 93.916C567.092 93.4238 565.938 93.002 564.285 92.6504C562.645 92.2988 561.338 91.877 560.365 91.3848C559.404 90.8926 558.689 90.3066 558.221 89.627C557.764 88.9473 557.535 88.1387 557.535 87.2012C557.535 85.6426 558.191 84.3242 559.504 83.2461C560.828 82.168 562.516 81.6289 564.566 81.6289C566.723 81.6289 568.469 82.1855 569.805 83.2988C571.152 84.4121 571.826 85.8359 571.826 87.5703H568.557C568.557 86.6797 568.176 85.9121 567.414 85.2676C566.664 84.623 565.715 84.3008 564.566 84.3008C563.383 84.3008 562.457 84.5586 561.789 85.0742C561.121 85.5898 560.787 86.2637 560.787 87.0957C560.787 87.8809 561.098 88.4727 561.719 88.8711C562.34 89.2695 563.459 89.6504 565.076 90.0137C566.705 90.377 568.023 90.8105 569.031 91.3145C570.039 91.8184 570.783 92.4277 571.264 93.1426C571.756 93.8457 572.002 94.707 572.002 95.7266C572.002 97.4258 571.322 98.791 569.963 99.8223C568.604 100.842 566.84 101.352 564.672 101.352C563.148 101.352 561.801 101.082 560.629 100.543C559.457 100.004 558.537 99.2539 557.869 98.293C557.213 97.3203 556.885 96.2715 556.885 95.1465H560.137C560.195 96.2363 560.629 97.1035 561.438 97.748C562.258 98.3809 563.336 98.6973 564.672 98.6973C565.902 98.6973 566.887 98.4512 567.625 97.959C568.375 97.4551 568.75 96.7871 568.75 95.9551ZM584.131 101.352C581.553 101.352 579.455 100.508 577.838 98.8203C576.221 97.1211 575.412 94.8535 575.412 92.0176V91.4199C575.412 89.5332 575.77 87.8516 576.484 86.375C577.211 84.8867 578.219 83.7266 579.508 82.8945C580.809 82.0508 582.215 81.6289 583.727 81.6289C586.199 81.6289 588.121 82.4434 589.492 84.0723C590.863 85.7012 591.549 88.0332 591.549 91.0684V92.4219H578.664C578.711 94.2969 579.256 95.8145 580.299 96.9746C581.354 98.123 582.689 98.6973 584.307 98.6973C585.455 98.6973 586.428 98.4629 587.225 97.9941C588.021 97.5254 588.719 96.9043 589.316 96.1309L591.303 97.6777C589.709 100.127 587.318 101.352 584.131 101.352ZM583.727 84.3008C582.414 84.3008 581.312 84.7812 580.422 85.7422C579.531 86.6914 578.98 88.0273 578.77 89.75H588.297V89.5039C588.203 87.8516 587.758 86.5742 586.961 85.6719C586.164 84.7578 585.086 84.3008 583.727 84.3008ZM606.402 95.9551C606.402 95.0762 606.068 94.3965 605.4 93.916C604.744 93.4238 603.59 93.002 601.938 92.6504C600.297 92.2988 598.99 91.877 598.018 91.3848C597.057 90.8926 596.342 90.3066 595.873 89.627C595.416 88.9473 595.188 88.1387 595.188 87.2012C595.188 85.6426 595.844 84.3242 597.156 83.2461C598.48 82.168 600.168 81.6289 602.219 81.6289C604.375 81.6289 606.121 82.1855 607.457 83.2988C608.805 84.4121 609.479 85.8359 609.479 87.5703H606.209C606.209 86.6797 605.828 85.9121 605.066 85.2676C604.316 84.623 603.367 84.3008 602.219 84.3008C601.035 84.3008 600.109 84.5586 599.441 85.0742C598.773 85.5898 598.439 86.2637 598.439 87.0957C598.439 87.8809 598.75 88.4727 599.371 88.8711C599.992 89.2695 601.111 89.6504 602.729 90.0137C604.357 90.377 605.676 90.8105 606.684 91.3145C607.691 91.8184 608.436 92.4277 608.916 93.1426C609.408 93.8457 609.654 94.707 609.654 95.7266C609.654 97.4258 608.975 98.791 607.615 99.8223C606.256 100.842 604.492 101.352 602.324 101.352C600.801 101.352 599.453 101.082 598.281 100.543C597.109 100.004 596.189 99.2539 595.521 98.293C594.865 97.3203 594.537 96.2715 594.537 95.1465H597.789C597.848 96.2363 598.281 97.1035 599.09 97.748C599.91 98.3809 600.988 98.6973 602.324 98.6973C603.555 98.6973 604.539 98.4512 605.277 97.959C606.027 97.4551 606.402 96.7871 606.402 95.9551Z" fill="white"/>
<defs>
<linearGradient id="paint0_linear" x1="163" y1="148.815" x2="1273" y2="148.815" gradientUnits="userSpaceOnUse">
<stop stop-color="#FFFDDD"/>
<stop offset="0.348958" stop-color="#FEC85D"/>
<stop offset="0.673106" stop-color="#D55809"/>
<stop offset="1" stop-color="#6B2606"/>
</linearGradient>
</defs>
</svg>
